<?xml version="1.0" standalone="no"?>
<!DOCTYPE svg PUBLIC "-//W3C//DTD SVG 20010904//EN"
 "http://www.w3.org/TR/2001/REC-SVG-20010904/DTD/svg10.dtd">
<svg version="1.0" xmlns="http://www.w3.org/2000/svg"
 width="50.000000pt" height="50.000000pt" viewBox="0 0 50.000000 50.000000"
 preserveAspectRatio="xMidYMid meet">

<g transform="translate(0.000000,50.000000) scale(0.100000,-0.100000)"
fill="#000000" stroke="none">
<path d="M227 479 c-30 -18 -40 -57 -22 -92 8 -16 15 -32 15 -34 0 -2 -31 -1
-69 3 -79 7 -75 11 -87 -88 -7 -66 8 -82 51 -54 47 31 85 15 85 -36 0 -42 -40
-58 -81 -34 -46 27 -63 15 -55 -41 3 -25 11 -52 17 -59 15 -19 349 -20 367 -2
8 8 12 57 12 154 0 168 -1 169 -90 159 -33 -4 -60 -5 -60 -3 0 3 7 19 15 35
33 66 -35 129 -98 92z m78 -33 c15 -22 15 -27 0 -56 -26 -50 -7 -64 72 -55
l64 7 -3 -144 -3 -143 -171 -3 -171 -2 -7 41 c-4 23 -5 43 -3 46 3 2 18 -4 35
-14 60 -34 120 18 96 84 -14 40 -54 51 -100 29 l-37 -17 7 38 c3 21 6 48 6 61
0 23 2 23 70 16 81 -8 93 3 65 56 -15 29 -15 34 0 56 9 15 25 24 40 24 15 0
31 -9 40 -24z"/>
</g>
</svg>
